<?xml version="1.0" encoding="UTF-8"?>
<svg id="Layer_2" data-name="Layer 2" xmlns="http://www.w3.org/2000/svg" viewBox="0 0 950 950">
  <path d="M277.02,532.08v-42.88c0-219.27,401.83-216.86,401.83,0,0,13.14,0,27.58,0,42.88l205.5-28.66-201.08-32.1,179.1-92.09-199.39,29.57,141.94-142.77-179.1,88.72,91.23-180.77-142.04,141.52,33-197.26-96,178.76-32-200.73-32,200.73-96-178.76,33,197.26-146.16-141.52,91.24,180.77-174.08-88.71,135.21,142.77-193.21-29.57,174.61,92.09-201.08,32.1,205.49,28.65Z"/>
  <path d="M654.53,822.78h-353.18v-327.78c0-189.99,353.17-194.76,353.17,0l.02,327.78ZM425.64,418.97h-45.8c-1.35,0-2.45,1.1-2.45,2.45v358.36c0,1.35,1.1,2.45,2.45,2.45h45.8c1.35,0,2.45-1.1,2.45-2.45v-138.71c0-1.35,1.1-2.45,2.45-2.45h84.66c1.35,0,2.45,1.1,2.45,2.45v138.71c0,1.35,1.1,2.45,2.45,2.45h52.56c1.35,0,2.45-1.1,2.45-2.45v-153.83c0-12.84-9.99-25.72-16.92-33.77s-21.48-16.07-32.93-16.07h-48.16l105.4-155.57c.45-.66-.03-1.56-.83-1.56h-61.87c-.81,0-1.57.4-2.03,1.08l-89.68,132.83v-131.45c0-1.35-1.1-2.45-2.45-2.45Z"/>
</svg>