<?xml version="1.0" encoding="UTF-8"?>
<svg id="Layer_1" data-name="Layer 1" xmlns="http://www.w3.org/2000/svg" viewBox="0 0 482.04 426.86">
  <defs>
    <style>
      .cls-1 {
        fill: #3a3a3a;
      }

      .cls-2 {
        fill: #fefefe;
      }
    </style>
  </defs>
  <path class="cls-1" d="M241.17,426.75c-32.97,0-65.94-.09-98.92.11-4.51.03-5.51-1.33-5.49-5.63.19-63.44-.52-126.9.57-190.32.52-30.18,13.77-54.9,40.91-70.45,7.91-4.53,16.72-6.22,25.91-6.31,23.64-.23,47.28.15,70.91-.14,28.42-.35,46.32,14.78,59.31,37.77,8.73,15.46,11.4,32.65,11.46,50.1.22,59.95.04,119.89.19,179.84.01,4.39-1.5,5.13-5.44,5.11-33.14-.14-66.28-.08-99.42-.08Z"/>
  <path class="cls-1" d="M382.99,43.58c-18.02,35.12-36.04,70.24-54.06,105.36.29.34.58.68.86,1.02,34.76-17.85,69.52-35.7,104.28-53.55.21.29.42.57.63.86-27.78,27.75-55.55,55.5-83.33,83.25.23.38.47.77.7,1.15,38.79-6.28,77.58-12.55,116.37-18.83.19.48.39.97.58,1.45-35,17.68-69.99,35.36-104.99,53.05,38.95,8.17,78.31,12.47,118.01,19.93-11.21,2.73-21.92,3.82-32.54,5.32-28.18,3.98-56.39,7.69-84.56,11.7-3.66.52-4.66-.37-4.6-3.95.28-15.99.33-31.98-4.38-47.53-6.93-22.89-18.77-42.21-39.81-54.82-9.17-5.5-19.08-8.43-29.88-8.47-26.98-.11-53.96-.08-80.92-.73-28.12-.68-48.99,11.75-64.28,34.38-11.73,17.37-17.82,36.71-17.88,57.8-.02,6.66-.03,13.33,0,19.99.01,2.22-.08,3.88-3.19,3.44-38.89-5.48-77.88-10.3-116.66-16.58-.62-.1-1.22-.35-3.34-.97,40.63-6.2,79.79-12.17,118.95-18.14.07-.39.14-.79.21-1.18-35.06-17.72-70.11-35.44-105.17-53.16.15-.51.29-1.01.44-1.52,38.55,6.24,77.1,12.47,115.64,18.7-27.84-27.84-55.61-55.61-83.39-83.38.5-.69,1-1.37,1.5-2.06,34.94,17.94,69.88,35.87,104.82,53.81.33-.26.65-.53.98-.79-18.04-35.19-36.07-70.39-54.11-105.58.35-.27.69-.55,1.04-.82,27.71,27.31,55.42,54.62,83.13,81.94.4-.2.8-.41,1.2-.61-6.12-37.89-12.23-75.78-18.35-113.67.47-.17.95-.34,1.42-.5,17.63,34.86,35.27,69.73,52.9,104.59.42-.06.84-.13,1.26-.19,6.27-38.08,12.54-76.15,18.81-114.23.49-.02.98-.05,1.47-.07,5.81,38.11,11.63,76.22,17.44,114.32.43.15.85.31,1.28.46,17.66-34.97,35.33-69.94,52.99-104.91l1.48.4c-6.12,37.94-12.24,75.87-18.37,113.81.41.2.82.39,1.24.59,27.7-27.26,55.41-54.52,83.11-81.78.35.23.7.45,1.06.68Z"/>
  <path class="cls-2" d="M213.22,264.52c2.53-3.66,5.11-7.28,7.58-10.98,13.7-20.48,27.44-40.94,41.02-61.5,2.07-3.13,4.4-4.48,8.17-4.42,11.08.2,22.17.07,34.35.07-21.28,31.23-41.94,61.56-63.42,93.08,6.89,0,12.77.42,18.58-.07,26.61-2.23,40.18,17.62,39.74,38.54-.54,26.14-.21,52.29-.05,78.44.03,3.96-1.14,5.13-5.06,4.99-7.82-.29-15.66-.33-23.48,0-4.29.18-5.69-.91-5.65-5.46.23-24.65.01-49.3.2-73.95.03-4.39-.92-6.05-5.71-5.93-13.98.33-27.98.34-41.97,0-4.81-.12-5.68,1.58-5.65,5.93.19,24.81,0,49.63.18,74.45.03,4.02-1.18,5.12-5.05,4.94-6.65-.29-13.33-.33-19.98,0-4.08.21-4.98-1.28-4.96-5.1.12-41.97.07-83.94.07-125.91,0-25.65,0-51.3,0-76.95q0-6.86,7.1-6.87c5.66,0,11.34.26,16.98-.08,4.29-.26,5.73.94,5.68,5.49-.24,21.82-.11,43.63-.11,65.45,0,1.78,0,3.56,0,5.34.47.16.94.31,1.4.47Z"/>
</svg>