<?xml version="1.0" encoding="UTF-8"?>
<svg id="Layer_1" data-name="Layer 1" xmlns="http://www.w3.org/2000/svg" viewBox="0 0 2698.58 550.65">
  <defs>
    <style>
      .cls-1 {
        fill: #fff;
      }
    </style>
  </defs>
  <path d="M2698.58,70.67c-9.16,13.86-18.4,27.67-27.46,41.6-18.71,28.74-37.39,57.51-55.9,86.39-1.58,2.47-2.51,5.81-2.53,8.75-.18,31.49-.11,62.98-.11,94.87h-22v-5.19c0-30,.06-60-.11-90-.02-2.79-.92-5.95-2.42-8.28-26.78-41.57-53.72-83.03-80.62-124.52-.8-1.23-1.54-2.5-2.82-4.59,8.75,0,16.8-.16,24.83.16,1.3.05,2.82,2,3.72,3.4,21.61,33.61,43.15,67.27,64.71,100.91,1.06,1.65,2.19,3.26,3.67,5.46,1.29-1.84,2.33-3.24,3.29-4.7,22-33.56,44.05-67.09,65.92-100.73,2.27-3.49,4.66-4.89,8.83-4.62,6.31.41,12.66.11,18.99.11v1Z"/>
  <path d="M438.1,543.27H173.14c-.09-1.78-.27-3.54-.27-5.3-.01-61.32-.05-122.64,0-183.96.02-20.82-.42-41.68.62-62.46.75-14.81,5.06-28.96,12.1-42.36,4.98-9.49,10.54-18.28,17.77-26.19,9.17-10.05,20.23-16.6,32.94-21.39,11.98-4.52,24.21-3.36,36.3-3.5,29.81-.35,59.64-.12,89.44.7,11.8.33,22.24,5.83,31.9,12.75,9,6.44,16.68,14.16,22.7,23.25,4.74,7.15,8.88,14.9,11.97,22.89,8.12,21.03,9.59,43.14,9.54,65.49-.14,71.32-.05,142.63-.05,213.95,0,1.96,0,3.92,0,6.12ZM230.8,241.04v271.33h37.08v-106.47h67.66v106.8c12.94,0,25.25-.2,37.55.1,4.77.12,6.26-1.23,6.23-6.13-.21-30.83-.11-61.65-.1-92.48,0-12.46-1-24.72-7.67-35.73-4.68-7.72-10.78-14.35-19.58-16.7-7.42-1.99-15.35-2.39-23.09-2.85-7.71-.45-15.47-.1-24.11-.1,27.19-39.91,53.64-78.75,80.52-118.2-16.3,0-31.62-.04-46.94.06-1.36,0-3.31.49-3.98,1.46-7.37,10.56-14.59,21.22-21.73,31.94-4.16,6.24-7.99,12.7-12.16,18.94-7.77,11.63-15.65,23.18-23.52,34.74-2.54,3.72-5.21,7.35-7.81,11.02-.54-.23-1.07-.46-1.61-.69v-97.04h-36.74Z"/>
  <path d="M155.86,325.69c-12.74-1.91-24.51-3.82-36.34-5.39-10.4-1.38-20.86-2.26-31.27-3.58-12.98-1.64-25.95-3.43-38.9-5.29-10.15-1.46-20.28-3.03-30.39-4.72-5.83-.97-11.61-2.28-18.96-3.75,8.93-1.51,16.41-2.96,23.95-4.01,9.39-1.31,18.85-2.16,28.25-3.44,11.31-1.54,22.59-3.27,33.86-5.01,10.28-1.59,20.56-3.25,30.82-4.97,11.24-1.88,22.46-3.87,34.41-6.93-44.76-22.61-89.51-45.22-134.27-67.83.15-.54.31-1.09.46-1.63,5.15.59,10.33,1.01,15.45,1.82,8.65,1.36,17.25,3.03,25.89,4.45,21.13,3.46,42.26,6.86,63.4,10.26,12.42,2,24.86,3.91,37.27,5.94,1.9.31,3.72,1.06,6.39.74-35.3-35.35-70.61-70.7-105.91-106.05.37-.43.74-.86,1.11-1.28,4.97,2.29,10.03,4.42,14.89,6.93,4.46,2.31,8.57,5.27,13.05,7.53,16.19,8.15,32.54,15.96,48.68,24.2,14.75,7.53,29.28,15.47,43.94,23.18,4.17,2.2,8.42,4.25,13.88,6.99-3.82-8.11-7.02-15.21-10.51-22.17-2.1-4.19-4.86-8.06-6.96-12.26-6.22-12.43-12.14-25.02-18.4-37.43-6.92-13.73-14.03-27.38-21.18-41-3.77-7.18-7.83-14.2-11.72-21.32-.37-.68-.44-1.52-.65-2.28.34-.29.69-.58,1.03-.87,35.39,34.93,70.78,69.85,106.17,104.78.45-.2.9-.41,1.34-.61-.88-6.44-1.69-12.89-2.69-19.31-.48-3.08-1.49-6.07-1.97-9.15-2.51-16.08-4.9-32.17-7.4-48.25-1.61-10.33-3.34-20.64-5.03-30.96-1.92-11.76-3.86-23.52-5.76-35.29-.11-.7.11-1.45.31-3.58,4.59,8.9,8.52,16.57,12.48,24.22,4.42,8.54,8.87,17.05,13.29,25.59,1.95,3.77,3.93,7.52,5.79,11.34,6.12,12.6,12.12,25.26,18.3,37.84,5.25,10.69,10.67,21.3,16.11,31.89.61,1.2,1.89,2.05,3.44,3.69,2.2-13.79,4.21-26.71,6.32-39.61,3.39-20.75,6.88-41.47,10.26-62.22,2.21-13.57,4.27-27.17,6.52-40.73.28-1.67,1.27-3.22,2.49-6.17.7,5.95,1.13,10.48,1.77,14.98,1.9,13.26,3.85,26.52,5.83,39.77,1.62,10.79,3.36,21.57,4.99,32.36,2.04,13.46,3.93,26.94,6.09,40.39,1.1,6.84,2.62,13.61,5.01,21.11,11.34-22.22,22.76-44.41,34.01-66.68,11.26-22.28,22.35-44.64,33.51-66.97.65.25,1.3.49,1.95.74-.65,3.15-1.44,6.28-1.92,9.45-3.02,19.69-5.87,39.4-8.96,59.07-3.16,20.14-6.48,40.25-9.86,60.35-.9,5.33-2.31,10.57-3.49,15.85.56.37,1.12.74,1.68,1.11,35.42-34.92,70.85-69.83,106.27-104.75.31.2.63.4.94.59-2.28,4.9-4.43,9.88-6.88,14.69-2.27,4.47-4.94,8.73-7.3,13.16-4.67,8.76-9.28,17.55-13.84,26.36-2.33,4.51-4.46,9.14-6.75,13.67-5.25,10.36-10.54,20.7-15.83,31.04-5.5,10.75-11.04,21.47-16.5,32.24-.73,1.43-1.09,3.04-1.89,5.34,9.95-5.29,19.2-10.32,28.56-15.14,7.87-4.06,15.9-7.8,23.78-11.83,8.92-4.57,17.72-9.37,26.63-13.95,8.26-4.24,16.66-8.22,24.9-12.51,8.37-4.36,16.61-8.99,24.94-13.43,1.44-.77,3.07-1.17,4.61-1.74.33.35.66.71.98,1.06-35.25,35.29-70.49,70.58-105.74,105.88l.56,1.18c2.33-.6,4.62-1.43,6.99-1.77,10.22-1.46,20.49-2.58,30.68-4.17,19.96-3.12,39.88-6.47,59.81-9.73,10.15-1.66,20.3-3.28,30.44-5.01,5.85-1,11.66-2.22,17.5-3.28.9-.16,1.86-.02,2.8-.02.21.49.42.98.63,1.48-44.65,22.55-89.3,45.11-133.95,67.66.12.49.24.99.36,1.48,8.15,1.14,16.3,2.25,24.44,3.44,11.95,1.74,23.89,3.54,35.83,5.32,10.79,1.6,21.6,3.15,32.38,4.83,13.08,2.04,26.16,4.15,39.22,6.32,5.82.97,11.6,2.17,17.6,4.23-13.17,1.81-26.34,3.67-39.52,5.43-13.63,1.81-27.27,3.47-40.9,5.29-13.8,1.84-27.6,3.71-41.39,5.69-8.03,1.15-16.02,2.57-24.04,3.79-2.42.37-4.88.47-8.1.77,0-2.8,0-5.06,0-7.33.04-17.48.93-35.11-3.5-52.19-3.53-13.59-8.83-26.5-16.22-38.75-6.37-10.56-14.04-19.68-23.23-27.49-5.51-4.68-12.15-8.04-18.35-11.88-12.04-7.46-25.55-7.11-38.98-7.3-33.74-.48-67.49-1.58-101.23-1.31-10.73.09-21.82,2.56-32.03,6.03-9.52,3.24-17.75,9.5-25.57,16.38-9.57,8.41-16.81,18.39-23.6,28.83-2.75,4.23-4.72,9.06-6.45,13.84-3.24,8.97-6.6,17.96-8.85,27.19-1.6,6.56-1.81,13.52-2,20.33-.3,10.95-.08,21.92-.08,34.2Z"/>
  <path d="M1285.26,69.68c7.15,0,13.8-.2,20.42.18,1.19.07,2.82,2.36,3.26,3.91,7.6,26.37,15.05,52.78,22.51,79.19,11.12,39.38,22.21,78.77,33.32,118.15.35,1.23.81,2.44,1.67,5,19.98-69.54,39.62-137.88,59.32-206.44,8.73,0,17.23-.18,25.69.19,1.29.06,3.13,2.5,3.61,4.16,8.59,29.37,17,58.8,25.45,88.21,10.38,36.13,20.75,72.26,31.14,108.38.39,1.35.88,2.68,1.74,5.28,19.65-69.46,38.96-137.74,58.29-206.07h22.83c-22.76,77.77-45.43,155.24-68.14,232.84-8.39,0-16.38-.17-24.36.08-3.6.11-3.47-2.48-4.06-4.53-11.46-39.96-22.87-79.94-34.29-119.91-7.76-27.18-15.53-54.36-23.29-81.53-.34-.07-.68-.14-1.02-.22-19.62,68.57-39.23,137.14-58.96,206.1-8.37,0-16.68.19-24.96-.2-1.25-.06-2.95-2.67-3.47-4.39-7.46-25.03-14.75-50.11-22.09-75.17-14.29-48.85-28.58-97.7-42.87-146.55-.6-2.04-1.08-4.11-1.75-6.66Z"/>
  <path d="M1078.64,99.76v202.58h-21.79V69.73c8.99,0,18.08-.12,27.16.15,1.17.03,2.48,1.95,3.38,3.24,43.74,62.48,87.45,125,131.16,187.5,2.74,3.92,5.5,7.83,9.26,11.55V69.97h21.89v232.69c-8.86,0-17.64.14-26.41-.15-1.36-.04-2.97-1.84-3.92-3.21-29.73-42.41-59.4-84.87-89.08-127.31-16.89-24.15-33.78-48.3-50.67-72.45-.33.07-.65.15-.98.22Z"/>
  <path d="M1856.52,186.26c.21,33.48-9.77,63.25-33.15,87.75-17.88,18.73-40.2,29.25-65.62,33.06-27.28,4.09-53.93,1.72-78.9-10.7-37.45-18.64-57.44-50.03-63.16-90.68-4.32-30.69.2-60.15,16.69-86.97,19.74-32.1,49-49.52,86.01-54.05,30.87-3.78,60.16,1.2,86.43,18.68,29.66,19.74,45.49,48.19,50.74,82.98.42,2.8.8,5.62.91,8.44.16,3.82.04,7.66.04,11.49ZM1636.33,187.95c.3,3.68.46,9.36,1.28,14.94,4.85,32.96,20.43,58.84,50.48,74.7,19,10.03,39.47,12.56,60.62,10.16,30.3-3.44,54.28-17.54,70.4-43.58,15.05-24.31,18.45-51.06,13.8-78.91-4.04-24.17-14.86-44.79-34.14-60.34-20.9-16.85-45.22-22.61-71.59-20.82-23.22,1.57-43.77,9.69-60.62,26.03-21.35,20.72-29.67,46.75-30.24,77.82Z"/>
  <path d="M2060.16,302.67c-8.44,0-15.9.19-23.33-.17-1.43-.07-3.16-2.04-4.06-3.54-20.43-33.94-40.82-67.91-61.03-101.99-1.97-3.31-4.03-4.49-7.84-4.4-11.49.27-22.99.1-35.04.1v109.65h-21.99V70.17c.6-.14,1.36-.47,2.12-.46,24,.02,48.03-.68,71.98.44,11.95.56,24.25,3.06,35.51,7.12,22.06,7.95,33.31,25.02,35.08,48.26,1.33,17.44-2.05,33.49-14.68,46.6-10.41,10.81-23.76,15.53-37.99,18.47-2.06.42-4.12.81-6.76,1.32,22.69,36.93,45.06,73.34,68.03,110.73ZM1928.79,172.58c15.88,0,31.19.18,46.49-.09,6.45-.11,12.98-.69,19.32-1.9,21.56-4.12,34.95-19.37,34.98-39.28.03-20.21-13.22-36.74-35.23-39.27-21.38-2.46-43.14-1.63-64.74-2.21-.25,0-.51.36-.82.59v82.17Z"/>
  <path d="M2297.94,69.91h21.51v102.39h131.06v-102.39h21.71v232.44h-21.51v-109.33h-131.06v109.39h-21.71V69.91Z"/>
  <path d="M858.79,302.39V69.95h142.88v19.51h-120.69v83.07h113.31v19.88h-113.35v90.13h126.11v19.87h-148.25Z"/>
  <path d="M654.94,69.91h21.6v103.72c2.51-2,4.17-3.19,5.67-4.55,34.3-31.09,68.66-62.11,102.75-93.43,4.77-4.38,9.36-6.64,15.86-6.1,6.6.55,13.28.12,21.55.12-39.99,36-78.96,71.09-118.43,106.63,41.48,41.91,82.76,83.63,125.01,126.33-11.05,0-20.92.13-30.78-.14-1.45-.04-3-1.84-4.25-3.09-37.32-37.6-74.63-75.22-111.86-112.91-1.37-1.39-2.05-3.45-3.06-5.2-.74.51-1.49,1.02-2.23,1.53v119.61h-21.86V69.91Z"/>
  <path d="M2180.47,89.5v212.92h-21.69V89.82h-80.04v-19.89h181.58v19.57h-79.86Z"/>
  <path d="M1498.81,526.37c2.28-1.41,4.66-2.88,7.54-4.66,3.97,10.93,11.96,17.02,22.85,19.55,23.09,5.38,50.62-6.75,55.78-34.44,1.21-6.52,2.73-12.97,4.11-19.46-.47-.42-.93-.84-1.4-1.27-1.07,1.51-1.92,3.27-3.26,4.5-11.65,10.74-24.83,18.29-41.28,16.54-16.13-1.71-27.52-13.22-31.83-30.82-7.64-31.16,14.82-68.67,45.84-76.57,19.95-5.08,33.84.62,44.55,18.26.6.98,1.22,1.95,2.42,3.86,1.74-7.79,3.28-14.73,4.86-21.81h9.3c-2.07,9.85-4.04,19.38-6.08,28.9-5.53,25.86-11.19,51.69-16.62,77.57-5.19,24.76-25.26,42.68-50.72,44-8.18.42-16.66-.31-24.66-2.06-10.43-2.29-18.24-11.17-21.4-22.11ZM1568.81,407.45c-2.3.29-4.64.41-6.9.89-26.38,5.56-46.85,38.2-39.96,64.19,3.51,13.23,10.91,23.52,25.52,25.44,15.57,2.05,27.71-5.56,37.83-16.33,3.61-3.84,6.48-8.99,8-14.05,2.72-9.04,4.21-18.45,6.08-27.73.42-2.07.76-4.31.4-6.34-2.68-15.17-15.59-25.87-30.98-26.07Z"/>
  <path d="M1321.52,505.55h-10.39c1.35-6.49,2.64-12.74,3.93-18.98,3.34-16.12,6.84-32.21,9.89-48.39.85-4.52.81-9.32.46-13.93-.93-12.12-9.23-18.33-21.42-16.2-11.34,1.98-19.94,8.52-27.63,16.75-8.62,9.23-11.54,20.62-13.8,32.53-3.04,16-6.6,31.91-9.98,48.07h-10.45c2.38-11.32,4.84-22.33,6.98-33.4,2.65-13.7,6.04-27.36,7.29-41.21,1.77-19.72-10.45-28.37-28.81-20.63-16.51,6.95-27.76,19.33-31.8,37.18-4.36,19.27-8.25,38.65-12.37,58.12h-10.42c1.53-7.26,3.02-14.32,4.51-21.38,5.47-25.87,10.92-51.75,16.42-77.62,1.58-7.43,2.23-7.75,11.06-5.88-.76,3.53-1.52,7.07-2.27,10.61-.75,3.56-1.48,7.13-1.52,11.2,1.2-1.37,2.39-2.75,3.61-4.11,9.74-10.86,21.15-18.73,36.19-20.01,15.33-1.31,24.87,6.54,26.57,21.84.18,1.59.34,3.18.61,5.74,2.82-3.56,4.91-6.47,7.28-9.12,10.86-12.17,24.13-19.34,40.81-18.4,12.41.7,19.24,7.9,20.37,20.34,1.06,11.62-1.3,22.83-3.78,34.06-3.86,17.52-7.54,35.08-11.34,52.82Z"/>
  <path d="M658.71,361.67c20.64,0,40.78-.45,60.89.16,13.05.4,23.98,13.12,27.05,28.15,5.56,27.18-18.87,62.86-51.95,61.61-13.47-.51-26.97,0-40.46-.14-3.03-.03-4.26.78-4.91,3.97-3.36,16.61-7.05,33.16-10.67,49.97h-10.64c10.23-47.91,20.42-95.62,30.69-143.72ZM652.34,441.67c11.35,0,21.98.05,32.61-.02,6.31-.04,12.74.45,18.92-.54,17.15-2.75,31.52-20.71,32.61-39.9,1.06-18.64-9.96-30.37-28.53-30.37-9.65,0-19.3,0-28.95,0-11.49,0-11.55-.01-13.96,11.19-4.23,19.63-8.37,39.28-12.7,59.65Z"/>
  <path d="M1788.93,505.45h-11.03c-2.77-14.49-5.63-28.81-8.16-43.19-.56-3.16-1.73-4.15-4.81-4.13-18.99.1-37.98-.05-56.97.2-1.97.03-4.67,1.67-5.75,3.38-7.94,12.5-15.79,25.07-23.13,37.93-2.65,4.64-5.51,7.09-10.88,6.07-1.12-.21-2.31-.03-4.19-.03.9-1.7,1.47-2.97,2.2-4.15,28-45.3,56.12-90.52,83.88-135.96,2.95-4.83,6.6-4.18,10.56-3.81.83.08,1.81,2.41,2.08,3.82,6.68,34.97,13.27,69.95,19.87,104.93,1.85,9.81,3.71,19.61,5.53,29.42.33,1.75.51,3.52.8,5.52ZM1755.03,376.26c-.39-.1-.77-.2-1.16-.3-14.93,24.26-29.87,48.52-45.07,73.21h59.2c-4.37-24.59-8.67-48.75-12.97-72.91Z"/>
  <path d="M2212.63,396.91c-9.67-21.09-22.22-28.48-44.32-26.11-10.11,1.08-19.27,4.9-27.69,10.6-24.96,16.88-38.79,49.59-33.05,78.35,5.11,25.58,24.05,40.11,48.49,36.85,13.29-1.77,24.65-7.82,34.24-17.11,3.21-3.11,6.04-6.61,9.35-10.27,2.49,1.27,5.09,2.59,8.06,4.11-7.66,11.98-17.99,20.29-30.36,26.23-12.6,6.05-25.93,9.05-39.75,6.77-18.92-3.12-30.53-15.53-37.05-32.74-10.2-26.96-5.05-52.14,10.91-75.3,13.89-20.15,32.45-33.81,57.32-37.05,15.53-2.03,30.52-.23,42.21,11.54,3.98,4.01,6.51,9.5,9.49,14.44,2.2,3.63,1.1,6.18-3.04,7.46-1.56.48-2.99,1.38-4.82,2.26Z"/>
  <path d="M2584.99,456.43c-1.15,12.97.27,25.04,9.69,34.49,8.79,8.82,19.77,10.25,31.52,7.1,9.27-2.49,17.6-6.96,23.07-14.81,3.8-5.45,7.3-4.99,12.3-2.09-.6,1.06-1.09,2.22-1.84,3.18-12.86,16.61-29.69,24.88-50.78,23.23-18.7-1.47-32.56-17.22-34.62-38.56-3.43-35.52,23.44-67.79,58.95-70.65,9.55-.77,18.63.87,26.49,6.77,15.17,11.39,13.98,34.06-2.31,43.73-9.27,5.51-19.67,7.36-30.18,7.71-12.79.44-25.62-.04-38.43-.11-1.13,0-2.26,0-3.87,0ZM2586.72,447.35c1.39.46,2.3,1.03,3.2,1.03,13.96-.04,27.96.38,41.87-.5,6.28-.4,12.65-2.83,18.5-5.42,7.2-3.18,10.57-9.47,10.06-17.42-.49-7.76-4.67-13.58-11.86-15.75-5.87-1.77-12.57-2.83-18.54-1.9-22.76,3.51-35.23,18.88-43.25,39.96Z"/>
  <path d="M2313.59,481.13c-10.34,18.02-34.32,29.51-54.28,26.26-18.91-3.08-31.66-18.47-33.18-40.06-2.46-34.94,24.44-66.3,59.3-69.04,8.13-.64,16,.55,23.14,4.68,9.12,5.26,13.84,13.31,13.78,23.84-.06,10.23-4.93,17.79-13.88,22.63-9.14,4.94-19.17,6.81-29.35,7.13-12.63.39-25.29.19-37.93-.22-3.74-.12-4.88,1.05-4.59,4.35.42,4.79.42,9.7,1.53,14.34,4.39,18.34,19.59,27.63,38.28,23.48,9.85-2.19,18.22-7.14,24.8-14.9q4.95-5.84,12.36-2.47ZM2239.26,448.22c7.21.28,14.29.69,21.37.81,13.5.22,27.06.37,39.71-5.42,8.97-4.1,13.11-11.24,11.99-19.8-1.05-7.99-7.27-14.12-16.26-16.15-26.27-5.93-51.41,16.59-56.82,40.55Z"/>
  <path d="M838.6,481.15c-10.53,18.1-34.41,29.51-54.33,26.24-18.91-3.11-31.64-18.51-33.14-40.1-2.43-34.97,24.48-66.32,59.35-68.99,9.36-.72,18.29.9,26.05,6.61,15.48,11.4,14.32,34.3-2.24,44.01-9.3,5.45-19.69,7.27-30.2,7.63-12.46.43-24.96.27-37.42-.22-4.25-.16-5.42,1.2-5.07,4.89.44,4.63.47,9.36,1.55,13.84,4.43,18.34,19.63,27.61,38.32,23.43,9.85-2.2,18.22-7.16,24.79-14.93q4.94-5.84,12.35-2.42ZM764.19,447.67c1,.28,1.63.61,2.25.61,13.63.06,27.32.8,40.88-.18,7.23-.53,14.84-2.96,21.21-6.48,12.73-7.03,11.9-25.26-1.25-31.51-4.76-2.26-10.58-3.33-15.89-3.23-21.22.39-42.07,18.59-47.2,40.79Z"/>
  <path d="M1029.21,507.83c-19.79,0-34.97-13.27-38.54-33.7-6.27-35.86,21.48-72.27,57.72-75.74,19.29-1.85,35.23,9.23,41,28.49,11.21,37.45-21.13,80.95-60.18,80.96ZM1080.55,444.06c0-2,.17-4.01-.03-5.98-1.96-20.09-17.82-33.34-35.91-30.07-27.91,5.05-49.13,37.06-42.91,64.73,4.64,20.65,22.18,30.37,42.14,23.37,21.26-7.46,36.91-29.54,36.7-52.05Z"/>
  <path d="M1404.39,505.48h-10.38c1.99-9.59,3.9-18.94,5.88-28.28,4.92-23.26,9.89-46.51,14.81-69.77q1.73-8.15,11.25-7.13c-1.48,7.24-2.94,14.44-4.41,21.63.38.35.77.7,1.15,1.04.73-1.14,1.3-2.44,2.22-3.4,13.4-13.92,29.09-22.7,49.1-21.04,9.97.83,16.49,6.19,17.35,16.13.79,9.14.44,18.65-1.17,27.68-3.59,20.12-8.24,40.06-12.67,60.03-.29,1.31-2.27,2.8-3.72,3.16-2.18.54-4.58.14-7.29.14,4.24-20.12,8.69-39.72,12.37-59.46,1.47-7.91,2.1-16.19,1.59-24.2-.61-9.78-7.16-14.68-16.99-14.29-8.38.33-16.2,3-22.74,8.04-6.14,4.73-11.67,10.32-17.04,15.94-6.86,7.18-7.13,16.95-9.12,25.96-3.51,15.87-6.8,31.79-10.21,47.81Z"/>
  <path d="M2404.53,505.67c4.23-20.1,8.68-39.69,12.36-59.42,1.48-7.91,2.11-16.18,1.61-24.2-.61-9.79-7.14-14.7-16.96-14.33-8.38.32-16.2,2.98-22.74,8.02-6.14,4.73-11.68,10.31-17.05,15.93-6.87,7.18-7.15,16.95-9.14,25.96-3.51,15.88-6.8,31.8-10.21,47.84h-10.4c1.54-7.28,3.02-14.33,4.52-21.39,5.47-25.86,10.92-51.73,16.42-77.59,1.59-7.46,2.15-7.74,11.07-5.93-.75,3.54-1.52,7.07-2.26,10.61-.75,3.56-1.48,7.13-2.22,10.7.36.33.72.65,1.08.98.76-1.09,1.39-2.31,2.3-3.26,13.4-13.92,29.08-22.71,49.1-21.06,9.99.82,16.52,6.17,17.38,16.1.79,9.14.46,18.65-1.16,27.68-3.59,20.12-8.24,40.06-12.67,60.03-.29,1.32-2.25,2.84-3.69,3.19-2.17.54-4.58.14-7.32.14Z"/>
  <path d="M950.48,408.71h-14.08c1.83-3.27-.92-8.17,4.65-8.79,3.61-.4,7.29-.08,11.13-.08,1.5-5.29,2.62-10.48,4.45-15.41,4.87-13.12,12.18-24.33,26.72-28.06,9.39-2.41,18.45-1.05,26.6,5.66-1.81,2.5-3.43,4.75-5.28,7.3-8.23-5.59-16.83-6.94-25.24-1.46-11.2,7.29-14.29,18.99-16.16,31.97h28.21c-.71,3.25-1.28,5.81-1.91,8.69h-28.5c-9.92,46.72-19.78,93.2-29.71,139.97h-10.48c9.86-46.58,19.69-92.98,29.6-139.8Z"/>
  <path d="M1932.84,492.64c3.28-3.61,5.16-5.67,7.35-8.08,1.21,1.06,2.33,1.94,3.35,2.93,13.27,12.91,34.67,16.12,50.74,6.87,4.25-2.44,8.27-6.46,10.66-10.72,5.42-9.67,2.16-17.89-8.1-22.07-5.68-2.31-11.64-3.94-17.49-5.79-3.96-1.25-8-2.24-11.94-3.55-14.5-4.79-20.65-12.46-13.47-31.15,1.92-5,5.92-9.96,10.29-13.11,15.4-11.13,32.5-12.68,50.24-6.23,5.54,2.02,10.17,5.6,13.22,11.47-2.17,1.76-4.32,3.51-6.47,5.25-11.98-12.12-29.05-15.48-44.53-8.75-7.23,3.15-12.42,8.25-14.39,16.14-2.27,9.07.37,14.61,9.15,17.63,7.06,2.43,14.39,4.06,21.55,6.23,4.13,1.25,8.29,2.54,12.19,4.36,11.21,5.23,15.41,13.51,11.6,25.26-1.87,5.78-5.2,11.72-9.48,15.97-16.4,16.29-50.7,16.8-68.22,1.74-1.76-1.51-3.8-2.71-6.23-4.42Z"/>
  <path d="M1901.7,408.75h-14.08c.37-2.05.78-3.62.9-5.21.22-2.97,1.76-3.73,4.61-3.77,10.45-.13,10.46-.23,12.71-10.7,1.43-6.66,3.24-13.28,4.11-20.02.61-4.72,2.89-5.74,6.93-5.23,1.44.18,2.89.18,4.7.28-2.46,11.9-4.84,23.43-7.34,35.52h23.33c-.69,3.28-1.24,5.94-1.9,9.06-6.65,0-13.1.09-19.55-.04-2.65-.05-4.08.38-4.73,3.51-4.93,23.93-10.16,47.81-15.21,71.72-1.96,9.28,2.46,14.36,11.8,13.12,4.7-.63,9.25-2.42,13.92-3.7,2.93,7.22,2.92,8.06-4.88,10.4-5.95,1.79-12.31,2.87-18.51,2.97-9.13.15-15.02-5.93-13.91-14.97,1.37-11.18,4.08-22.2,6.39-33.26,3.44-16.42,7.06-32.8,10.7-49.67Z"/>
  <path d="M2468.45,408.65h-13.85c.38-2.05.8-3.66.97-5.29.26-2.66,1.54-3.72,4.26-3.56,3.47.2,6.95.05,10.82.05,2.05-9.87,4.05-19.44,6.03-29.01q1.47-7.15,8.9-6.98c.82.02,1.63.13,3,.24-2.43,11.86-4.82,23.49-7.32,35.65h23.36c-.74,3.25-1.35,5.95-2.03,8.94-6.69,0-13.16.12-19.63-.06-2.84-.08-3.95.75-4.57,3.71-4.96,23.93-10.18,47.8-15.24,71.71-1.9,9,2.46,14.1,11.53,12.96,4.86-.61,9.57-2.47,14.37-3.77,2.57,7.69,2.71,8.15-5.19,10.53-5.79,1.75-11.99,2.79-18.03,2.91-9.42.19-15.37-5.86-14.22-15.17,1.38-11.18,4.12-22.2,6.45-33.25,3.28-15.62,6.72-31.2,10.07-46.81.17-.78.18-1.58.32-2.8Z"/>
  <path d="M1835.51,422.85c11.9-12.78,24.3-23.27,43.13-23.13-.48,2.61-.45,4.75-1.31,6.42-.73,1.43-2.38,3.16-3.81,3.34-18.78,2.45-32.14,12.79-40.17,29.28-3.47,7.13-4.01,15.71-5.74,23.66-3.11,14.28-6.12,28.58-9.2,43.02h-10.42c1.47-6.91,2.91-13.63,4.33-20.35,5.46-25.87,10.93-51.75,16.38-77.63q1.74-8.25,11.55-7.21c-1.59,7.56-3.16,15.07-4.74,22.59Z"/>
  <path d="M2518.4,505.5h-10.42c1.76-8.34,3.45-16.4,5.16-24.45,5.17-24.41,10.36-48.81,15.5-73.22,1.85-8.76,1.8-8.77,11.62-7.47-1.58,7.53-3.16,15.03-5.05,24,12-14.06,24.4-24.63,43.5-24.67-.75,3.59-1.37,6.56-1.98,9.54-19.35,1.55-33.68,10.96-42.21,27.54-3.99,7.75-4.93,17.13-6.9,25.84-3.19,14.11-6.09,28.29-9.22,42.9Z"/>
  <path d="M1114.42,505.46h-10.47c2.49-11.66,4.92-23,7.32-34.35,4.51-21.32,9-42.64,13.5-63.95,1.73-8.19,1.98-8.33,11.5-6.71-1.59,7.43-3.17,14.84-5.09,23.86,12.09-14.01,24.52-24.69,43.45-24.59-.49,2.69-.51,4.93-1.36,6.78-.6,1.31-2.24,2.84-3.58,3.01-18.57,2.35-31.97,12.4-39.99,28.72-3.57,7.26-4.27,15.97-6.05,24.07-3.14,14.29-6.12,28.62-9.22,43.18Z"/>
  <path d="M889.26,400.42c-1.58,7.42-3.16,14.84-4.74,22.25,11.7-12.44,24.21-22.96,42.59-23.03-.1,8.57-.45,8.91-7.84,10.36-17.26,3.39-29.96,13.4-37.03,29.04-3.89,8.6-4.58,18.66-6.63,28.08-2.76,12.68-5.43,25.37-8.18,38.29h-10.46c2.19-10.29,4.34-20.32,6.46-30.36,4.78-22.62,9.55-45.24,14.33-67.86,1.74-8.24,1.9-8.33,11.5-6.77Z"/>
  <path d="M1384.83,400.1c-7.55,35.47-14.97,70.37-22.42,105.38h-10.39c1.92-9.26,3.76-18.29,5.67-27.3,5.06-23.91,10.39-47.76,15.07-71.75,1.13-5.8,3.56-7.55,8.88-6.6.8.14,1.62.14,3.19.27Z"/>
  <path d="M1383.48,357.69h10.37c-1.18,5.86-2.16,11.45-3.56,16.94-.2.78-2.36,1.33-3.67,1.49-2.1.24-4.24.07-6.95.07,1.33-6.45,2.54-12.37,3.8-18.49Z"/>
  <path class="cls-1" d="M230.8,241.04h36.74v97.04c.54.23,1.07.46,1.61.69,2.61-3.67,5.28-7.3,7.81-11.02,7.88-11.56,15.76-23.11,23.52-34.74,4.17-6.24,8-12.69,12.16-18.94,7.14-10.71,14.36-21.38,21.73-31.94.67-.96,2.62-1.45,3.98-1.46,15.32-.1,30.63-.06,46.94-.06-26.87,39.45-53.33,78.29-80.52,118.2,8.64,0,16.4-.35,24.11.1,7.74.46,15.66.86,23.09,2.85,8.79,2.35,14.9,8.98,19.58,16.7,6.67,11.01,7.67,23.27,7.67,35.73,0,30.83-.11,61.65.1,92.48.03,4.9-1.46,6.25-6.23,6.13-12.3-.31-24.61-.1-37.55-.1v-106.8h-67.66v106.47h-37.08V241.04Z"/>
  <path class="cls-1" d="M1636.33,187.95c.57-31.07,8.89-57.09,30.24-77.82,16.85-16.35,37.4-24.46,60.62-26.03,26.36-1.78,50.69,3.97,71.59,20.82,19.28,15.55,30.1,36.17,34.14,60.34,4.65,27.85,1.25,54.6-13.8,78.91-16.12,26.04-40.1,40.14-70.4,43.58-21.15,2.4-41.62-.13-60.62-10.16-30.05-15.86-45.63-41.74-50.48-74.7-.82-5.58-.98-11.27-1.28-14.94Z"/>
  <path class="cls-1" d="M1928.79,172.58v-82.17c.3-.23.57-.59.82-.59,21.59.58,43.35-.25,64.74,2.21,22.01,2.53,35.26,19.07,35.23,39.27-.03,19.92-13.41,35.17-34.98,39.28-6.33,1.21-12.86,1.79-19.32,1.9-15.3.27-30.62.09-46.49.09Z"/>
  <path class="cls-1" d="M1568.81,407.45c15.38.19,28.3,10.9,30.98,26.07.36,2.03.02,4.28-.4,6.34-1.88,9.28-3.37,18.69-6.08,27.73-1.52,5.06-4.39,10.21-8,14.05-10.12,10.77-22.26,18.38-37.83,16.33-14.61-1.92-22.01-12.21-25.52-25.44-6.89-26,13.58-58.63,39.96-64.19,2.26-.48,4.6-.6,6.9-.89Z"/>
  <path class="cls-1" d="M652.34,441.67c4.33-20.36,8.47-40.01,12.7-59.65,2.41-11.2,2.47-11.19,13.96-11.19,9.65,0,19.3,0,28.95,0,18.57,0,29.59,11.74,28.53,30.37-1.09,19.19-15.47,37.15-32.61,39.9-6.18.99-12.6.5-18.92.54-10.63.07-21.27.02-32.61.02Z"/>
  <path class="cls-1" d="M1755.03,376.26c4.3,24.16,8.59,48.32,12.97,72.91h-59.2c15.2-24.69,30.14-48.95,45.07-73.21.39.1.77.2,1.16.3Z"/>
  <path class="cls-1" d="M2586.72,447.35c8.02-21.08,20.49-36.45,43.25-39.96,5.98-.92,12.67.13,18.54,1.9,7.19,2.17,11.36,7.99,11.86,15.75.5,7.95-2.86,14.24-10.06,17.42-5.85,2.58-12.23,5.02-18.5,5.42-13.91.88-27.91.46-41.87.5-.91,0-1.82-.57-3.2-1.03Z"/>
  <path class="cls-1" d="M2239.26,448.22c5.41-23.97,30.55-46.49,56.82-40.55,8.99,2.03,15.21,8.16,16.26,16.15,1.12,8.56-3.02,15.7-11.99,19.8-12.65,5.79-26.21,5.64-39.71,5.42-7.08-.12-14.16-.53-21.37-.81Z"/>
  <path class="cls-1" d="M764.19,447.67c5.13-22.2,25.98-40.4,47.2-40.79,5.31-.1,11.13.97,15.89,3.23,13.15,6.25,13.98,24.48,1.25,31.51-6.37,3.52-13.98,5.95-21.21,6.48-13.56.99-27.25.24-40.88.18-.63,0-1.25-.33-2.25-.61Z"/>
  <path class="cls-1" d="M1080.55,444.06c.2,22.51-15.45,44.59-36.7,52.05-19.96,7-37.5-2.73-42.14-23.37-6.22-27.67,15-59.69,42.91-64.73,18.09-3.27,33.95,9.98,35.91,30.07.19,1.98.03,3.99.03,5.98Z"/>
</svg>